<mxfile host="app.diagrams.net" modified="2023-12-21T12:37:05.309Z" agent="Mozilla/5.0 (Windows NT 10.0; Win64; x64) AppleWebKit/537.36 (KHTML, like Gecko) Chrome/120.0.0.0 Safari/537.36" etag="MCfrcgPu-N8zRLtK7Crz" version="22.1.11" type="device">
  <diagram name="Страница 1" id="1rHPk0IWIDlfLcnpo2hS">
    <mxGraphModel dx="1050" dy="569" grid="1" gridSize="10" guides="1" tooltips="1" connect="1" arrows="1" fold="1" page="1" pageScale="1" pageWidth="850" pageHeight="1100" math="0" shadow="0">
      <root>
        <mxCell id="0" />
        <mxCell id="1" parent="0" />
        <mxCell id="CgsiM17t2gGhIgUbAa6X-77" value="" style="ellipse;html=1;shape=startState;fillColor=#000000;strokeColor=#ff0000;" parent="1" vertex="1">
          <mxGeometry x="248.5" y="40" width="30" height="30" as="geometry" />
        </mxCell>
        <mxCell id="CgsiM17t2gGhIgUbAa6X-78" value="" style="edgeStyle=orthogonalEdgeStyle;html=1;verticalAlign=bottom;endArrow=open;endSize=8;strokeColor=#ff0000;rounded=0;" parent="1" source="CgsiM17t2gGhIgUbAa6X-77" edge="1">
          <mxGeometry relative="1" as="geometry">
            <mxPoint x="263.5" y="130" as="targetPoint" />
          </mxGeometry>
        </mxCell>
        <mxCell id="CgsiM17t2gGhIgUbAa6X-94" style="edgeStyle=orthogonalEdgeStyle;rounded=0;orthogonalLoop=1;jettySize=auto;html=1;entryX=0.5;entryY=0;entryDx=0;entryDy=0;" parent="1" source="CgsiM17t2gGhIgUbAa6X-79" target="CgsiM17t2gGhIgUbAa6X-80" edge="1">
          <mxGeometry relative="1" as="geometry" />
        </mxCell>
        <mxCell id="CgsiM17t2gGhIgUbAa6X-79" value="Создание заявки" style="html=1;whiteSpace=wrap;" parent="1" vertex="1">
          <mxGeometry x="208.5" y="130" width="110" height="50" as="geometry" />
        </mxCell>
        <mxCell id="CgsiM17t2gGhIgUbAa6X-95" style="edgeStyle=orthogonalEdgeStyle;rounded=0;orthogonalLoop=1;jettySize=auto;html=1;entryX=0.5;entryY=0;entryDx=0;entryDy=0;" parent="1" source="CgsiM17t2gGhIgUbAa6X-80" target="CgsiM17t2gGhIgUbAa6X-81" edge="1">
          <mxGeometry relative="1" as="geometry" />
        </mxCell>
        <mxCell id="CgsiM17t2gGhIgUbAa6X-80" value="Обработка заявки" style="html=1;whiteSpace=wrap;" parent="1" vertex="1">
          <mxGeometry x="208.5" y="210" width="110" height="50" as="geometry" />
        </mxCell>
        <mxCell id="CgsiM17t2gGhIgUbAa6X-96" style="edgeStyle=orthogonalEdgeStyle;rounded=0;orthogonalLoop=1;jettySize=auto;html=1;" parent="1" source="CgsiM17t2gGhIgUbAa6X-81" edge="1">
          <mxGeometry relative="1" as="geometry">
            <mxPoint x="263.5" y="390" as="targetPoint" />
          </mxGeometry>
        </mxCell>
        <mxCell id="CgsiM17t2gGhIgUbAa6X-81" value="Поиск подходящей бригады" style="html=1;whiteSpace=wrap;" parent="1" vertex="1">
          <mxGeometry x="208.5" y="300" width="110" height="50" as="geometry" />
        </mxCell>
        <mxCell id="CgsiM17t2gGhIgUbAa6X-83" value="Нашлись подходящие бригады?" style="rhombus;whiteSpace=wrap;html=1;fontColor=#000000;fillColor=#ffffc0;strokeColor=#ff0000;" parent="1" vertex="1">
          <mxGeometry x="179.5" y="390" width="165" height="110" as="geometry" />
        </mxCell>
        <mxCell id="CgsiM17t2gGhIgUbAa6X-84" value="no" style="edgeStyle=orthogonalEdgeStyle;html=1;align=left;verticalAlign=bottom;endArrow=open;endSize=8;strokeColor=#ff0000;rounded=0;entryX=0.5;entryY=0;entryDx=0;entryDy=0;" parent="1" source="CgsiM17t2gGhIgUbAa6X-83" target="CgsiM17t2gGhIgUbAa6X-89" edge="1">
          <mxGeometry x="-1" relative="1" as="geometry">
            <mxPoint x="377" y="520" as="targetPoint" />
            <Array as="points">
              <mxPoint x="378.5" y="445" />
            </Array>
          </mxGeometry>
        </mxCell>
        <mxCell id="CgsiM17t2gGhIgUbAa6X-85" value="yes" style="edgeStyle=orthogonalEdgeStyle;html=1;align=left;verticalAlign=top;endArrow=open;endSize=8;strokeColor=#ff0000;rounded=0;" parent="1" edge="1">
          <mxGeometry x="-1" y="-14" relative="1" as="geometry">
            <mxPoint x="150" y="550" as="targetPoint" />
            <mxPoint x="179.5" y="430" as="sourcePoint" />
            <Array as="points">
              <mxPoint x="149.5" y="445" />
            </Array>
            <mxPoint x="4" y="-10" as="offset" />
          </mxGeometry>
        </mxCell>
        <mxCell id="CgsiM17t2gGhIgUbAa6X-92" style="edgeStyle=orthogonalEdgeStyle;rounded=0;orthogonalLoop=1;jettySize=auto;html=1;entryX=0.25;entryY=0;entryDx=0;entryDy=0;" parent="1" source="CgsiM17t2gGhIgUbAa6X-88" target="CgsiM17t2gGhIgUbAa6X-91" edge="1">
          <mxGeometry relative="1" as="geometry">
            <Array as="points">
              <mxPoint x="145" y="660" />
              <mxPoint x="210" y="660" />
            </Array>
          </mxGeometry>
        </mxCell>
        <mxCell id="CgsiM17t2gGhIgUbAa6X-88" value="Выполнить работы" style="html=1;whiteSpace=wrap;" parent="1" vertex="1">
          <mxGeometry x="90" y="550" width="110" height="50" as="geometry" />
        </mxCell>
        <mxCell id="CgsiM17t2gGhIgUbAa6X-93" style="edgeStyle=orthogonalEdgeStyle;rounded=0;orthogonalLoop=1;jettySize=auto;html=1;entryX=0.75;entryY=0;entryDx=0;entryDy=0;" parent="1" source="CgsiM17t2gGhIgUbAa6X-89" target="CgsiM17t2gGhIgUbAa6X-91" edge="1">
          <mxGeometry relative="1" as="geometry">
            <Array as="points">
              <mxPoint x="379" y="660" />
              <mxPoint x="300" y="660" />
            </Array>
          </mxGeometry>
        </mxCell>
        <mxCell id="CgsiM17t2gGhIgUbAa6X-89" value="Вывести сообщение об отсутствии бригад" style="html=1;whiteSpace=wrap;" parent="1" vertex="1">
          <mxGeometry x="318.5" y="550" width="120" height="70" as="geometry" />
        </mxCell>
        <mxCell id="CgsiM17t2gGhIgUbAa6X-100" style="edgeStyle=orthogonalEdgeStyle;rounded=0;orthogonalLoop=1;jettySize=auto;html=1;entryX=0.5;entryY=0;entryDx=0;entryDy=0;" parent="1" source="CgsiM17t2gGhIgUbAa6X-91" target="CgsiM17t2gGhIgUbAa6X-99" edge="1">
          <mxGeometry relative="1" as="geometry" />
        </mxCell>
        <mxCell id="CgsiM17t2gGhIgUbAa6X-91" value="" style="rounded=1;whiteSpace=wrap;html=1;fillColor=#f8cecc;strokeColor=#b85450;" parent="1" vertex="1">
          <mxGeometry x="164.5" y="710" width="180" height="20" as="geometry" />
        </mxCell>
        <mxCell id="CgsiM17t2gGhIgUbAa6X-99" value="" style="ellipse;html=1;shape=endState;fillColor=#000000;strokeColor=#ff0000;" parent="1" vertex="1">
          <mxGeometry x="239.5" y="800" width="30" height="30" as="geometry" />
        </mxCell>
      </root>
    </mxGraphModel>
  </diagram>
</mxfile>
